<mxfile host="app.diagrams.net" modified="2020-12-01T06:14:19.382Z" agent="5.0 (Macintosh; Intel Mac OS X 10_15_5) AppleWebKit/537.36 (KHTML, like Gecko) Chrome/86.0.4240.198 Safari/537.36" etag="O05tBLXCGn_iE87j1xqB" version="13.7.1" type="github">
  <diagram id="x9-HXlAuDJLVgnAVx4Mz" name="Page-1">
    <mxGraphModel dx="1374" dy="771" grid="1" gridSize="10" guides="1" tooltips="1" connect="1" arrows="1" fold="1" page="1" pageScale="1" pageWidth="1169" pageHeight="827" math="0" shadow="0">
      <root>
        <mxCell id="0" />
        <mxCell id="1" parent="0" />
        <mxCell id="p3zvtsnfVm8l9sNwANLh-1" value="Sonicos" style="rounded=0;whiteSpace=wrap;html=1;" vertex="1" parent="1">
          <mxGeometry x="240" y="20" width="210" height="90" as="geometry" />
        </mxCell>
        <mxCell id="p3zvtsnfVm8l9sNwANLh-3" value="Post: /upload&lt;br&gt;Body: Cutomer Obj&lt;br&gt;Res: 200&lt;br&gt;Handle: GenPDF" style="text;html=1;align=left;verticalAlign=middle;resizable=0;points=[];autosize=1;" vertex="1" parent="1">
          <mxGeometry x="150" y="170" width="120" height="60" as="geometry" />
        </mxCell>
        <mxCell id="p3zvtsnfVm8l9sNwANLh-6" style="edgeStyle=orthogonalEdgeStyle;rounded=0;orthogonalLoop=1;jettySize=auto;html=1;" edge="1" parent="1" source="p3zvtsnfVm8l9sNwANLh-4" target="p3zvtsnfVm8l9sNwANLh-7">
          <mxGeometry relative="1" as="geometry">
            <mxPoint x="590" y="555" as="targetPoint" />
          </mxGeometry>
        </mxCell>
        <mxCell id="p3zvtsnfVm8l9sNwANLh-4" value="APISVC&lt;br&gt;&lt;br&gt;Node.js&lt;br&gt;&lt;br&gt;Port: 5443" style="whiteSpace=wrap;html=1;aspect=fixed;" vertex="1" parent="1">
          <mxGeometry x="240" y="300" width="220" height="220" as="geometry" />
        </mxCell>
        <mxCell id="p3zvtsnfVm8l9sNwANLh-20" value="" style="edgeStyle=orthogonalEdgeStyle;rounded=0;orthogonalLoop=1;jettySize=auto;html=1;entryX=1;entryY=0.5;entryDx=0;entryDy=0;" edge="1" parent="1" target="p3zvtsnfVm8l9sNwANLh-21">
          <mxGeometry relative="1" as="geometry">
            <mxPoint x="650" y="455" as="sourcePoint" />
            <mxPoint x="1209.9166666666667" y="301.9878389138423" as="targetPoint" />
            <Array as="points">
              <mxPoint x="680" y="455" />
              <mxPoint x="680" y="125" />
            </Array>
          </mxGeometry>
        </mxCell>
        <mxCell id="p3zvtsnfVm8l9sNwANLh-7" value="SFRGEN&lt;br&gt;sfrgen.pl" style="rounded=1;whiteSpace=wrap;html=1;" vertex="1" parent="1">
          <mxGeometry x="540" y="413" width="120" height="70" as="geometry" />
        </mxCell>
        <mxCell id="p3zvtsnfVm8l9sNwANLh-21" value="getDB()" style="whiteSpace=wrap;html=1;rounded=1;arcSize=7;" vertex="1" parent="1">
          <mxGeometry x="870.5" y="100" width="100" height="50" as="geometry" />
        </mxCell>
        <mxCell id="p3zvtsnfVm8l9sNwANLh-64" value="&lt;font style=&quot;font-size: 10px&quot;&gt;10.100.55.23:5432&lt;/font&gt;" style="text;html=1;align=center;verticalAlign=middle;resizable=0;points=[];autosize=1;" vertex="1" parent="1">
          <mxGeometry x="710.5" y="196" width="120" height="20" as="geometry" />
        </mxCell>
        <mxCell id="p3zvtsnfVm8l9sNwANLh-67" value="" style="outlineConnect=0;fontColor=#232F3E;gradientColor=none;fillColor=#3334B9;strokeColor=none;dashed=0;verticalLabelPosition=bottom;verticalAlign=top;align=center;html=1;fontSize=12;fontStyle=0;aspect=fixed;pointerEvents=1;shape=mxgraph.aws4.rds_postgresql_instance;" vertex="1" parent="1">
          <mxGeometry x="741.25" y="147.5" width="48.5" height="48.5" as="geometry" />
        </mxCell>
        <mxCell id="p3zvtsnfVm8l9sNwANLh-69" value="" style="outlineConnect=0;fontColor=#232F3E;gradientColor=none;fillColor=#3334B9;strokeColor=none;dashed=0;verticalLabelPosition=bottom;verticalAlign=top;align=center;html=1;fontSize=12;fontStyle=0;aspect=fixed;pointerEvents=1;shape=mxgraph.aws4.rds_mysql_instance;" vertex="1" parent="1">
          <mxGeometry x="735.5" y="253.12" width="47" height="47" as="geometry" />
        </mxCell>
        <mxCell id="p3zvtsnfVm8l9sNwANLh-73" value="Co Name" style="text;html=1;align=center;verticalAlign=middle;resizable=0;points=[];autosize=1;" vertex="1" parent="1">
          <mxGeometry x="780" y="295" width="70" height="20" as="geometry" />
        </mxCell>
        <mxCell id="p3zvtsnfVm8l9sNwANLh-74" value="SN" style="text;html=1;align=center;verticalAlign=middle;resizable=0;points=[];autosize=1;" vertex="1" parent="1">
          <mxGeometry x="800.5" y="255" width="30" height="20" as="geometry" />
        </mxCell>
        <mxCell id="p3zvtsnfVm8l9sNwANLh-75" value="Pr Name" style="text;html=1;align=center;verticalAlign=middle;resizable=0;points=[];autosize=1;" vertex="1" parent="1">
          <mxGeometry x="785.5" y="312.37" width="60" height="20" as="geometry" />
        </mxCell>
        <mxCell id="p3zvtsnfVm8l9sNwANLh-82" value="" style="endArrow=classic;html=1;entryX=0.302;entryY=0.509;entryDx=0;entryDy=0;entryPerimeter=0;exitX=0.5;exitY=1;exitDx=0;exitDy=0;" edge="1" parent="1" source="p3zvtsnfVm8l9sNwANLh-21" target="p3zvtsnfVm8l9sNwANLh-113">
          <mxGeometry relative="1" as="geometry">
            <mxPoint x="920" y="157.5" as="sourcePoint" />
            <mxPoint x="918.31" y="262.75" as="targetPoint" />
          </mxGeometry>
        </mxCell>
        <mxCell id="p3zvtsnfVm8l9sNwANLh-84" value="Source" style="edgeLabel;resizable=0;html=1;align=left;verticalAlign=bottom;" connectable="0" vertex="1" parent="p3zvtsnfVm8l9sNwANLh-82">
          <mxGeometry x="-1" relative="1" as="geometry">
            <mxPoint x="-60.3" y="6.949999999999999" as="offset" />
          </mxGeometry>
        </mxCell>
        <mxCell id="p3zvtsnfVm8l9sNwANLh-85" value="Target" style="edgeLabel;resizable=0;html=1;align=right;verticalAlign=bottom;" connectable="0" vertex="1" parent="p3zvtsnfVm8l9sNwANLh-82">
          <mxGeometry x="1" relative="1" as="geometry">
            <mxPoint x="-20.009999999999998" y="-12" as="offset" />
          </mxGeometry>
        </mxCell>
        <mxCell id="p3zvtsnfVm8l9sNwANLh-105" value="&lt;span style=&quot;font-size: 12px ; background-color: rgb(248 , 249 , 250)&quot;&gt;bwh/app/idp/spy/gav.json&lt;/span&gt;" style="edgeLabel;html=1;align=center;verticalAlign=middle;resizable=0;points=[];" vertex="1" connectable="0" parent="p3zvtsnfVm8l9sNwANLh-82">
          <mxGeometry x="-0.1691" y="-3" relative="1" as="geometry">
            <mxPoint x="5.87" as="offset" />
          </mxGeometry>
        </mxCell>
        <mxCell id="p3zvtsnfVm8l9sNwANLh-86" value="" style="endArrow=classic;startArrow=classic;html=1;" edge="1" parent="1">
          <mxGeometry width="50" height="50" relative="1" as="geometry">
            <mxPoint x="873.75" y="156.75" as="sourcePoint" />
            <mxPoint x="789.75" y="186.75" as="targetPoint" />
            <Array as="points">
              <mxPoint x="789.75" y="186.75" />
              <mxPoint x="873.75" y="156.75" />
            </Array>
          </mxGeometry>
        </mxCell>
        <mxCell id="p3zvtsnfVm8l9sNwANLh-87" value="10.100.35.28:1443" style="text;html=1;align=center;verticalAlign=middle;resizable=0;points=[];autosize=1;" vertex="1" parent="1">
          <mxGeometry x="710.5" y="230" width="120" height="20" as="geometry" />
        </mxCell>
        <mxCell id="p3zvtsnfVm8l9sNwANLh-104" value="http://localhost:8008" style="text;html=1;align=center;verticalAlign=middle;resizable=0;points=[];autosize=1;" vertex="1" parent="1">
          <mxGeometry x="730" y="453.12" width="120" height="20" as="geometry" />
        </mxCell>
        <mxCell id="p3zvtsnfVm8l9sNwANLh-114" value="printReport()" style="shape=step;perimeter=stepPerimeter;fixedSize=1;points=[];direction=south;" vertex="1" parent="1">
          <mxGeometry x="866" y="322.37" width="110" height="60" as="geometry" />
        </mxCell>
        <mxCell id="p3zvtsnfVm8l9sNwANLh-116" value="" style="edgeStyle=orthogonalEdgeStyle;rounded=0;orthogonalLoop=1;jettySize=auto;html=1;" edge="1" parent="1" source="p3zvtsnfVm8l9sNwANLh-113" target="p3zvtsnfVm8l9sNwANLh-114">
          <mxGeometry relative="1" as="geometry" />
        </mxCell>
        <mxCell id="p3zvtsnfVm8l9sNwANLh-122" value="" style="edgeStyle=orthogonalEdgeStyle;rounded=0;orthogonalLoop=1;jettySize=auto;html=1;" edge="1" parent="1" source="p3zvtsnfVm8l9sNwANLh-113" target="p3zvtsnfVm8l9sNwANLh-69">
          <mxGeometry relative="1" as="geometry">
            <Array as="points" />
          </mxGeometry>
        </mxCell>
        <mxCell id="p3zvtsnfVm8l9sNwANLh-113" value="genReport()" style="shape=step;perimeter=stepPerimeter;fixedSize=1;points=[];direction=south;" vertex="1" parent="1">
          <mxGeometry x="865.5" y="247.93" width="110" height="57.37" as="geometry" />
        </mxCell>
        <mxCell id="p3zvtsnfVm8l9sNwANLh-124" value="" style="endArrow=classic;html=1;" edge="1" parent="1">
          <mxGeometry width="50" height="50" relative="1" as="geometry">
            <mxPoint x="785.5" y="292.37" as="sourcePoint" />
            <mxPoint x="890" y="294" as="targetPoint" />
          </mxGeometry>
        </mxCell>
        <mxCell id="p3zvtsnfVm8l9sNwANLh-136" value="" style="edgeStyle=orthogonalEdgeStyle;rounded=0;orthogonalLoop=1;jettySize=auto;html=1;" edge="1" parent="1" source="p3zvtsnfVm8l9sNwANLh-127">
          <mxGeometry relative="1" as="geometry">
            <mxPoint x="923.5" y="515" as="targetPoint" />
          </mxGeometry>
        </mxCell>
        <mxCell id="p3zvtsnfVm8l9sNwANLh-127" value="PDFHTMLGenModle&lt;br style=&quot;padding: 0px ; margin: 0px&quot;&gt;cta_server.js" style="rounded=1;whiteSpace=wrap;html=1;" vertex="1" parent="1">
          <mxGeometry x="866" y="443.12" width="115" height="40" as="geometry" />
        </mxCell>
        <mxCell id="p3zvtsnfVm8l9sNwANLh-131" value="" style="endArrow=classic;html=1;exitX=0.974;exitY=0.479;exitDx=0;exitDy=0;exitPerimeter=0;entryX=0.5;entryY=0;entryDx=0;entryDy=0;" edge="1" parent="1" source="p3zvtsnfVm8l9sNwANLh-114" target="p3zvtsnfVm8l9sNwANLh-127">
          <mxGeometry relative="1" as="geometry">
            <mxPoint x="980.5" y="375" as="sourcePoint" />
            <mxPoint x="1140.5" y="375" as="targetPoint" />
          </mxGeometry>
        </mxCell>
        <mxCell id="p3zvtsnfVm8l9sNwANLh-132" value="swarmdata.json/ resource.json/ swarm.scv" style="edgeLabel;resizable=0;html=1;align=center;verticalAlign=middle;" connectable="0" vertex="1" parent="p3zvtsnfVm8l9sNwANLh-131">
          <mxGeometry relative="1" as="geometry" />
        </mxCell>
        <mxCell id="p3zvtsnfVm8l9sNwANLh-133" value="Source" style="edgeLabel;resizable=0;html=1;align=left;verticalAlign=bottom;" connectable="0" vertex="1" parent="p3zvtsnfVm8l9sNwANLh-131">
          <mxGeometry x="-1" relative="1" as="geometry" />
        </mxCell>
        <mxCell id="p3zvtsnfVm8l9sNwANLh-134" value="Target" style="edgeLabel;resizable=0;html=1;align=right;verticalAlign=bottom;" connectable="0" vertex="1" parent="p3zvtsnfVm8l9sNwANLh-131">
          <mxGeometry x="1" relative="1" as="geometry" />
        </mxCell>
        <mxCell id="p3zvtsnfVm8l9sNwANLh-141" value="" style="shape=image;html=1;verticalAlign=top;verticalLabelPosition=bottom;labelBackgroundColor=#ffffff;imageAspect=0;aspect=fixed;image=https://cdn4.iconfinder.com/data/icons/file-types-outline-1/64/ebook_pdf_epub_files-128.png" vertex="1" parent="1">
          <mxGeometry x="899.5" y="515" width="48" height="48" as="geometry" />
        </mxCell>
        <mxCell id="p3zvtsnfVm8l9sNwANLh-149" value="" style="shape=doubleArrow;direction=south;whiteSpace=wrap;html=1;" vertex="1" parent="1">
          <mxGeometry x="250" y="110" width="35" height="190" as="geometry" />
        </mxCell>
        <mxCell id="p3zvtsnfVm8l9sNwANLh-164" value="" style="shape=flexArrow;endArrow=classic;startArrow=classic;html=1;entryX=0.94;entryY=1.022;entryDx=0;entryDy=0;entryPerimeter=0;" edge="1" parent="1" target="p3zvtsnfVm8l9sNwANLh-1">
          <mxGeometry width="50" height="50" relative="1" as="geometry">
            <mxPoint x="437" y="298" as="sourcePoint" />
            <mxPoint x="500" y="175" as="targetPoint" />
          </mxGeometry>
        </mxCell>
        <mxCell id="p3zvtsnfVm8l9sNwANLh-173" value="&lt;span style=&quot;font-size: 12px ; background-color: rgb(248 , 249 , 250)&quot;&gt;Get:/download?name&lt;/span&gt;" style="edgeLabel;html=1;align=center;verticalAlign=middle;resizable=0;points=[];" vertex="1" connectable="0" parent="p3zvtsnfVm8l9sNwANLh-164">
          <mxGeometry x="-0.2851" y="1" relative="1" as="geometry">
            <mxPoint x="43.86" y="-1.3299999999999983" as="offset" />
          </mxGeometry>
        </mxCell>
        <mxCell id="p3zvtsnfVm8l9sNwANLh-167" value="" style="shape=image;html=1;verticalAlign=top;verticalLabelPosition=bottom;labelBackgroundColor=#ffffff;imageAspect=0;aspect=fixed;image=https://cdn4.iconfinder.com/data/icons/CS5/128/ACP_PDF%202_file_document.png" vertex="1" parent="1">
          <mxGeometry x="485" y="250" width="30" height="30" as="geometry" />
        </mxCell>
        <mxCell id="p3zvtsnfVm8l9sNwANLh-168" value="" style="shape=flexArrow;endArrow=classic;startArrow=classic;html=1;entryX=0.393;entryY=0.989;entryDx=0;entryDy=0;entryPerimeter=0;exitX=0.375;exitY=0.003;exitDx=0;exitDy=0;exitPerimeter=0;" edge="1" parent="1" source="p3zvtsnfVm8l9sNwANLh-4" target="p3zvtsnfVm8l9sNwANLh-1">
          <mxGeometry width="50" height="50" relative="1" as="geometry">
            <mxPoint x="160" y="360" as="sourcePoint" />
            <mxPoint x="210" y="310" as="targetPoint" />
          </mxGeometry>
        </mxCell>
        <mxCell id="p3zvtsnfVm8l9sNwANLh-169" value="Get: /files&lt;br&gt;Res:pdfList" style="edgeLabel;html=1;align=left;verticalAlign=middle;resizable=0;points=[];" vertex="1" connectable="0" parent="p3zvtsnfVm8l9sNwANLh-168">
          <mxGeometry x="0.2522" y="2" relative="1" as="geometry">
            <mxPoint x="-35.52" y="-10.66" as="offset" />
          </mxGeometry>
        </mxCell>
        <mxCell id="p3zvtsnfVm8l9sNwANLh-170" value="" style="shape=flexArrow;endArrow=classic;startArrow=classic;html=1;exitX=0.636;exitY=0;exitDx=0;exitDy=0;exitPerimeter=0;" edge="1" parent="1" source="p3zvtsnfVm8l9sNwANLh-4">
          <mxGeometry width="50" height="50" relative="1" as="geometry">
            <mxPoint x="160" y="360" as="sourcePoint" />
            <mxPoint x="380" y="110" as="targetPoint" />
          </mxGeometry>
        </mxCell>
        <mxCell id="p3zvtsnfVm8l9sNwANLh-172" value="Get: /fsize&lt;br&gt;" style="edgeLabel;html=1;align=center;verticalAlign=middle;resizable=0;points=[];" vertex="1" connectable="0" parent="p3zvtsnfVm8l9sNwANLh-170">
          <mxGeometry x="-0.1562" y="3" relative="1" as="geometry">
            <mxPoint y="-20" as="offset" />
          </mxGeometry>
        </mxCell>
        <mxCell id="p3zvtsnfVm8l9sNwANLh-174" value="" style="endArrow=none;dashed=1;html=1;dashPattern=1 3;strokeWidth=2;entryX=0;entryY=0.5;entryDx=0;entryDy=0;exitX=1;exitY=1;exitDx=0;exitDy=0;" edge="1" parent="1" source="p3zvtsnfVm8l9sNwANLh-4" target="p3zvtsnfVm8l9sNwANLh-141">
          <mxGeometry width="50" height="50" relative="1" as="geometry">
            <mxPoint x="500" y="460" as="sourcePoint" />
            <mxPoint x="550" y="410" as="targetPoint" />
            <Array as="points">
              <mxPoint x="900" y="520" />
            </Array>
          </mxGeometry>
        </mxCell>
      </root>
    </mxGraphModel>
  </diagram>
</mxfile>
